<svg width="283" height="283" viewBox="0 0 283 283" fill="none" xmlns="http://www.w3.org/2000/svg">
<circle cx="141.5" cy="141.5" r="141.5" fill="#50B3C9"/>
<path d="M138 55.6V204H114V190.2C109.867 195.267 104.733 199.067 98.6 201.6C92.6 204.133 85.9333 205.4 78.6 205.4C68.3333 205.4 59.0667 203.133 50.8 198.6C42.6667 194.067 36.2667 187.667 31.6 179.4C26.9333 171 24.6 161.4 24.6 150.6C24.6 139.8 26.9333 130.267 31.6 122C36.2667 113.733 42.6667 107.333 50.8 102.8C59.0667 98.2667 68.3333 96 78.6 96C85.6667 96 92.1333 97.2 98 99.6C103.867 102 108.867 105.6 113 110.4V55.6H138ZM81.6 184C87.6 184 93 182.667 97.8 180C102.6 177.2 106.4 173.267 109.2 168.2C112 163.133 113.4 157.267 113.4 150.6C113.4 143.933 112 138.067 109.2 133C106.4 127.933 102.6 124.067 97.8 121.4C93 118.6 87.6 117.2 81.6 117.2C75.6 117.2 70.2 118.6 65.4 121.4C60.6 124.067 56.8 127.933 54 133C51.2 138.067 49.8 143.933 49.8 150.6C49.8 157.267 51.2 163.133 54 168.2C56.8 173.267 60.6 177.2 65.4 180C70.2 182.667 75.6 184 81.6 184Z" fill="white"/>
<path d="M150.3 120.9H169.05V201H150.3V120.9ZM159.75 107.7C156.35 107.7 153.5 106.65 151.2 104.55C148.9 102.35 147.75 99.65 147.75 96.45C147.75 93.25 148.9 90.6 151.2 88.5C153.5 86.3 156.35 85.2 159.75 85.2C163.15 85.2 166 86.25 168.3 88.35C170.6 90.35 171.75 92.9 171.75 96C171.75 99.3 170.6 102.1 168.3 104.4C166.1 106.6 163.25 107.7 159.75 107.7ZM241.809 196.65C239.609 198.45 236.909 199.8 233.709 200.7C230.609 201.6 227.309 202.05 223.809 202.05C215.009 202.05 208.209 199.75 203.409 195.15C198.609 190.55 196.209 183.85 196.209 175.05V136.5H183.009V121.5H196.209V103.2H214.959V121.5H236.409V136.5H214.959V174.6C214.959 178.5 215.909 181.5 217.809 183.6C219.709 185.6 222.459 186.6 226.059 186.6C230.259 186.6 233.759 185.5 236.559 183.3L241.809 196.65Z" fill="#051D20"/>
</svg>
